<svg width="24" height="24" viewBox="0 0 24 24" fill="none" xmlns="http://www.w3.org/2000/svg">
<mask id="mask0_785_251" style="mask-type:alpha" maskUnits="userSpaceOnUse" x="0" y="0" width="24" height="24">
<rect width="24" height="24" fill="#D9D9D9"/>
</mask>
<g mask="url(#mask0_785_251)">
<path d="M6.8655 21.5C6.218 21.5 5.66192 21.2827 5.19725 20.848C4.73242 20.4135 4.5 19.8757 4.5 19.2345V5.58279C4.5 5.00713 4.68625 4.49654 5.05875 4.05104C5.43108 3.60554 5.90508 3.32254 6.48075 3.20204L13.6443 1.74629C14.2033 1.62579 14.7036 1.74471 15.1453 2.10304C15.5869 2.46138 15.8077 2.92829 15.8077 3.50379V15.1308C15.8077 15.5628 15.6722 15.9455 15.401 16.2788C15.1298 16.6121 14.7866 16.8205 14.3712 16.9038L6.6405 18.5173C6.46483 18.5571 6.31417 18.6427 6.1885 18.774C6.06283 18.9055 6 19.059 6 19.2345C6 19.4564 6.08625 19.6395 6.25875 19.7838C6.43108 19.928 6.63333 20 6.8655 20H17.6923C17.7821 20 17.8558 19.9712 17.9135 19.9135C17.9712 19.8559 18 19.7821 18 19.6923V5.25004C18 5.03721 18.0718 4.85904 18.2155 4.71554C18.359 4.57188 18.5372 4.50004 18.75 4.50004C18.9628 4.50004 19.141 4.57188 19.2845 4.71554C19.4282 4.85904 19.5 5.03721 19.5 5.25004V19.6923C19.5 20.191 19.3234 20.617 18.9703 20.9703C18.6169 21.3235 18.1909 21.5 17.6923 21.5H6.8655ZM8.69225 16.579L14.0673 15.4693C14.1378 15.4565 14.1955 15.4212 14.2405 15.3635C14.2853 15.3059 14.3077 15.2418 14.3077 15.1713V3.52879C14.3077 3.43279 14.2692 3.35271 14.1923 3.28854C14.1154 3.22438 14.0289 3.20196 13.9327 3.22129L8.69225 4.29229V16.579ZM7.19225 16.8828V4.59629L6.7885 4.68079C6.56033 4.72696 6.37183 4.83179 6.223 4.99529C6.07433 5.15879 6 5.35463 6 5.58279V17.229C6.1025 17.1764 6.20767 17.1311 6.3155 17.0933C6.42317 17.0555 6.5315 17.025 6.6405 17.002L7.19225 16.8828Z" fill="#6632C9"/>
</g>
</svg>
