<svg width="40" height="40" viewBox="0 0 40 40" fill="none" xmlns="http://www.w3.org/2000/svg">
<mask id="mask0_500_742" style="mask-type:alpha" maskUnits="userSpaceOnUse" x="0" y="0" width="40" height="40">
<rect width="40" height="40" fill="#D9D9D9"/>
</mask>
<g mask="url(#mask0_500_742)">
<path d="M12.1796 34.1667C11.3485 34.1667 10.6385 33.8724 10.0496 33.2838C9.46097 32.6949 9.16667 31.9849 9.16667 31.1538V10H7.5V7.50005H15V6.02588H25V7.50005H32.5V10H30.8333V31.1538C30.8333 31.9957 30.5417 32.7084 29.9583 33.2917C29.375 33.875 28.6624 34.1667 27.8204 34.1667H12.1796ZM28.3333 10H11.6667V31.1538C11.6667 31.3035 11.7147 31.4264 11.8108 31.5225C11.9069 31.6187 12.0299 31.6667 12.1796 31.6667H27.8204C27.9487 31.6667 28.0663 31.6132 28.1729 31.5063C28.2799 31.3996 28.3333 31.2821 28.3333 31.1538V10ZM15.6733 28.3334H18.1729V13.3334H15.6733V28.3334ZM21.8271 28.3334H24.3267V13.3334H21.8271V28.3334Z" fill="#141716"/>
</g>
</svg>
