<svg width="20" height="22" viewBox="0 0 20 22" fill="none" xmlns="http://www.w3.org/2000/svg">
<mask id="mask0_808_608" style="mask-type:alpha" maskUnits="userSpaceOnUse" x="0" y="2" width="20" height="20">
<rect y="2" width="20" height="20" fill="#D9D9D9"/>
</mask>
<g mask="url(#mask0_808_608)">
<path d="M4.42315 19.0834C4.00217 19.0834 3.64585 18.9376 3.35419 18.6459C3.06252 18.3542 2.91669 17.9979 2.91669 17.577V6.42321C2.91669 6.00223 3.06252 5.64591 3.35419 5.35425C3.64585 5.06258 4.00217 4.91675 4.42315 4.91675H10.0079V6.16675H4.42315C4.35898 6.16675 4.30023 6.19348 4.2469 6.24696C4.19342 6.30029 4.16669 6.35904 4.16669 6.42321V17.577C4.16669 17.6411 4.19342 17.6999 4.2469 17.7532C4.30023 17.8067 4.35898 17.8334 4.42315 17.8334H10.0079V19.0834H4.42315ZM13.5256 15.5578L12.6602 14.6538L14.6892 12.6251H7.58023V11.3751H14.6892L12.6602 9.34633L13.5256 8.44237L17.0834 12.0001L13.5256 15.5578Z" fill="#313140"/>
</g>
</svg>
