<svg xmlns="http://www.w3.org/2000/svg" width="149" height="21" fill="none" xmlns:v="https://vecta.io/nano"><g fill="#fff"><path d="M.218.88h3.318v6.993L10.13.88h4.116L8.198 7.012 14.246 16h-3.969L5.93 9.322l-2.394 2.415V16H.218V.88zm15.192 4.2h2.982v1.47c.406-.518.896-.931 1.47-1.239.574-.322 1.232-.483 1.974-.483.798 0 1.484.175 2.058.525.588.336 1.036.833 1.344 1.491.322.658.483 1.47.483 2.436V16h-3.066V9.637c0-.658-.154-1.183-.462-1.575-.294-.392-.777-.588-1.449-.588a2.38 2.38 0 0 0-1.113.273c-.336.182-.616.462-.84.84-.21.378-.315.868-.315 1.47V16H15.41V5.08zm17.595 11.172c-1.176 0-2.191-.245-3.045-.735-.854-.504-1.505-1.183-1.953-2.037-.434-.868-.651-1.848-.651-2.94s.217-2.065.651-2.919a4.89 4.89 0 0 1 1.953-2.037c.854-.504 1.869-.756 3.045-.756s2.191.252 3.045.756c.854.49 1.498 1.169 1.932 2.037.448.854.672 1.827.672 2.919s-.224 2.072-.672 2.94c-.434.854-1.078 1.533-1.932 2.037-.854.49-1.869.735-3.045.735zm0-2.499c.588 0 1.064-.133 1.428-.399.378-.266.658-.637.84-1.113s.273-1.043.273-1.701-.091-1.225-.273-1.701-.462-.847-.84-1.113c-.364-.266-.84-.399-1.428-.399-.574 0-1.05.133-1.428.399s-.658.637-.84 1.113-.273 1.043-.273 1.701.091 1.225.273 1.701.462.847.84 1.113.854.399 1.428.399zm6.336-8.673h3.318l2.247 7.287 1.995-7.287h2.898l1.995 7.287 2.247-7.287h3.318L53.6 16h-3.234L48.35 8.902 46.334 16H43.1L39.341 5.08zM58.497.88h3.066v11.865c0 .336.077.581.231.735s.413.231.777.231h1.428V16h-2.247c-.686 0-1.26-.077-1.722-.231-.462-.168-.833-.462-1.113-.882-.28-.434-.42-1.043-.42-1.827V.88z"/><use href="#B"/><path d="M84.136 15.832c-.546.28-1.197.42-1.953.42-1.008 0-1.876-.245-2.604-.735-.714-.504-1.26-1.183-1.638-2.037-.378-.868-.567-1.848-.567-2.94s.189-2.065.567-2.919c.378-.868.924-1.547 1.638-2.037.728-.504 1.596-.756 2.604-.756.714 0 1.337.133 1.869.399.546.252 1.008.623 1.386 1.113V.88h3.066V16h-2.982v-1.407c-.364.532-.826.945-1.386 1.239zm-2.562-2.478c.378.266.847.399 1.407.399s1.022-.133 1.386-.399c.378-.266.658-.637.84-1.113s.273-1.043.273-1.701-.091-1.225-.273-1.701-.462-.847-.84-1.113c-.364-.266-.826-.399-1.386-.399s-1.029.133-1.407.399c-.364.266-.637.637-.819 1.113-.168.476-.252 1.043-.252 1.701s.084 1.225.252 1.701c.182.476.455.847.819 1.113zm14.037 7.098c-1.568 0-2.786-.35-3.654-1.05-.868-.686-1.337-1.638-1.407-2.856h3.024c.056.532.273.924.651 1.176s.882.378 1.512.378c.714 0 1.302-.175 1.764-.525.476-.35.714-.966.714-1.848v-1.365c-.364.476-.819.84-1.365 1.092s-1.176.378-1.89.378c-1.008 0-1.876-.231-2.604-.693-.714-.476-1.26-1.127-1.638-1.953-.378-.84-.567-1.792-.567-2.856s.189-2.009.567-2.835.924-1.477 1.638-1.953c.728-.476 1.596-.714 2.604-.714.742 0 1.386.14 1.932.42.56.266 1.029.651 1.407 1.155V5.08h2.981v10.647c0 1.036-.245 1.904-.735 2.604-.49.714-1.162 1.246-2.016 1.596s-1.827.525-2.919.525zm.147-7.014c.574 0 1.043-.126 1.407-.378s.637-.609.819-1.071.273-1.015.273-1.659-.091-1.197-.273-1.659-.455-.819-.819-1.071-.833-.378-1.407-.378c-.56 0-1.022.126-1.386.378s-.637.609-.819 1.071-.273 1.015-.273 1.659.091 1.197.273 1.659.455.819.819 1.071.826.378 1.386.378z"/><use href="#B" x="37.837"/><path d="M115.673 5.08h2.982v1.911c.336-.714.77-1.232 1.302-1.554.546-.322 1.183-.483 1.911-.483h.882v2.814h-1.029c-.63 0-1.169.105-1.617.315-.434.196-.77.532-1.008 1.008-.238.462-.357 1.099-.357 1.911V16h-3.066V5.08z"/><path d="M124.055 12.409h3.465V16h-3.465v-3.591z" fill-opacity=".5"/></g><path d="M134.097.88h3.906L143.799 16h-3.507l-1.092-2.982h-6.279L131.829 16h-3.381L134.097.88zm4.158 9.345L136.05 4.03l-2.184 6.195h4.389z" fill="url(#A)"/><path d="M145.147.88h3.318V16h-3.318V.88z" fill="url(#A)"/><defs><linearGradient id="A" x1="130.302" y1="15.559" x2="140.604" y2="1.385" gradientUnits="userSpaceOnUse"><stop stop-color="#9059ee"/><stop offset="1" stop-color="#b841bb"/></linearGradient><path id="B" d="M70.634 16.252c-1.134 0-2.121-.245-2.961-.735a5.1 5.1 0 0 1-1.932-2.037c-.434-.868-.651-1.848-.651-2.94s.217-2.065.651-2.919c.448-.868 1.092-1.547 1.932-2.037.84-.504 1.827-.756 2.961-.756 1.162 0 2.163.245 3.003.735.84.476 1.47 1.169 1.89 2.079.434.91.651 1.981.651 3.213v.63h-8.064c.084.504.231.938.441 1.302.224.364.511.644.861.84s.756.294 1.218.294c.602 0 1.099-.105 1.491-.315.392-.224.693-.546.903-.966h2.961a4.98 4.98 0 0 1-1.932 2.646c-.938.644-2.079.966-3.423.966zm2.499-6.825c-.14-.714-.427-1.267-.861-1.659-.42-.406-.966-.609-1.638-.609-.658 0-1.204.203-1.638.609-.434.392-.721.945-.861 1.659h4.998z"/></defs></svg>